<?xml version="1.0" encoding="utf-8"?>
<!-- Generator: Adobe Illustrator 18.1.1, SVG Export Plug-In . SVG Version: 6.00 Build 0)  -->
<svg version="1.1" id="Layer_1" xmlns="http://www.w3.org/2000/svg" xmlns:xlink="http://www.w3.org/1999/xlink" x="0px" y="0px"
	 width="170px" height="36px" viewBox="0 0 170 36" enable-background="new 0 0 170 36" xml:space="preserve">
<g>
	<g>
		<defs>
			<path id="SVGID_37_" d="M39.1,17.9c0-2.1,0.3-4.2,0.9-6.1c0.6-1.9,1.5-3.6,2.7-5c1.2-1.4,2.6-2.6,4.4-3.4c1.7-0.8,3.7-1.3,6-1.3
				c2.3,0,4.3,0.4,6,1.3c1.7,0.8,3.2,2,4.4,3.4c1.2,1.4,2.1,3.1,2.7,5c0.6,1.9,0.9,3.9,0.9,6.1c0,2.1-0.3,4.2-0.9,6.1
				c-0.6,1.9-1.5,3.6-2.7,5c-1.2,1.4-2.6,2.6-4.4,3.4c-1.7,0.8-3.7,1.2-6,1.2c-2.3,0-4.3-0.4-6-1.2c-1.7-0.8-3.2-2-4.4-3.4
				c-1.2-1.4-2.1-3.1-2.7-5C39.4,22.1,39.1,20.1,39.1,17.9 M40,17.9c0,2.2,0.3,4.2,1,6c0.6,1.8,1.5,3.4,2.6,4.7
				c1.1,1.3,2.5,2.4,4.1,3.1c1.6,0.7,3.4,1.1,5.5,1.1c2,0,3.9-0.4,5.5-1.1c1.6-0.7,3-1.8,4.1-3.1c1.1-1.3,2-2.9,2.6-4.7
				c0.6-1.8,0.9-3.8,1-6c0-2.2-0.3-4.2-1-6c-0.6-1.8-1.5-3.4-2.6-4.7c-1.1-1.3-2.5-2.4-4.1-3.1C56.9,3.3,55.1,3,53.1,3
				c-2,0-3.9,0.4-5.5,1.1c-1.6,0.7-3,1.8-4.1,3.1c-1.1,1.3-2,2.9-2.6,4.7C40.3,13.7,40,15.7,40,17.9"/>
		</defs>
		<clipPath id="SVGID_1_">
			<use xlink:href="#SVGID_37_"  overflow="visible"/>
		</clipPath>
		<g clip-path="url(#SVGID_1_)">
			<defs>
				<rect id="SVGID_39_" x="0" y="2" width="171" height="32"/>
			</defs>
			<clipPath id="SVGID_2_">
				<use xlink:href="#SVGID_39_"  overflow="visible"/>
			</clipPath>
			<rect x="34.1" y="-2.9" clip-path="url(#SVGID_2_)" width="37.9" height="41.6"/>
		</g>
	</g>
	<g>
		<defs>
			<polygon id="SVGID_41_" points="87.5,16.9 87.5,17.7 71.5,17.7 71.5,33 70.6,33 70.6,2.8 89.2,2.8 89.2,3.7 71.5,3.7 71.5,16.9 
							"/>
		</defs>
		<clipPath id="SVGID_3_">
			<use xlink:href="#SVGID_41_"  overflow="visible"/>
		</clipPath>
		<g clip-path="url(#SVGID_3_)">
			<defs>
				<rect id="SVGID_43_" x="0" y="2" width="171" height="32"/>
			</defs>
			<clipPath id="SVGID_4_">
				<use xlink:href="#SVGID_43_"  overflow="visible"/>
			</clipPath>
			<rect x="65.6" y="-2.2" clip-path="url(#SVGID_4_)" width="28.6" height="40.2"/>
		</g>
	</g>
	<g>
		<defs>
			<polygon id="SVGID_45_" points="107.9,16.9 107.9,17.7 91.8,17.7 91.8,33 91,33 91,2.8 109.6,2.8 109.6,3.7 91.8,3.7 91.8,16.9 
							"/>
		</defs>
		<clipPath id="SVGID_5_">
			<use xlink:href="#SVGID_45_"  overflow="visible"/>
		</clipPath>
		<g clip-path="url(#SVGID_5_)">
			<defs>
				<rect id="SVGID_47_" x="0" y="2" width="171" height="32"/>
			</defs>
			<clipPath id="SVGID_6_">
				<use xlink:href="#SVGID_47_"  overflow="visible"/>
			</clipPath>
			<rect x="86" y="-2.2" clip-path="url(#SVGID_6_)" width="28.6" height="40.2"/>
		</g>
	</g>
	<g>
		<defs>
			<polygon id="SVGID_49_" points="131.6,32.2 131.6,33 111.3,33 111.3,2.8 131.4,2.8 131.4,3.7 112.2,3.7 112.2,16.9 130.3,16.9 
				130.3,17.7 112.2,17.7 112.2,32.2 			"/>
		</defs>
		<clipPath id="SVGID_7_">
			<use xlink:href="#SVGID_49_"  overflow="visible"/>
		</clipPath>
		<g clip-path="url(#SVGID_7_)">
			<defs>
				<rect id="SVGID_51_" x="0" y="2" width="171" height="32"/>
			</defs>
			<clipPath id="SVGID_8_">
				<use xlink:href="#SVGID_51_"  overflow="visible"/>
			</clipPath>
			<rect x="106.3" y="-2.2" clip-path="url(#SVGID_8_)" width="30.2" height="40.2"/>
		</g>
	</g>
	<g>
		<defs>
			<path id="SVGID_53_" d="M134.1,33V2.8h12.4c3.2,0,5.5,0.6,6.9,1.9c1.5,1.3,2.2,3.2,2.3,5.9c0.1,2-0.5,3.7-1.6,5
				c-1.1,1.3-2.8,2.2-4.9,2.7v0.1c1.3,0.2,2.3,0.5,3.1,0.9c0.8,0.4,1.4,1,1.8,1.7c0.4,0.7,0.7,1.5,0.8,2.5c0.1,1,0.2,2,0.2,3.3
				c0,0.4,0,1,0,1.6c0,0.6,0.1,1.3,0.1,1.9c0.1,0.6,0.1,1.2,0.2,1.7c0.1,0.5,0.2,0.9,0.3,1.1H155c-0.1-0.3-0.3-0.7-0.3-1.2
				c-0.1-0.5-0.1-1.1-0.2-1.7c0-0.6-0.1-1.2-0.1-1.8c0-0.6,0-1.1,0-1.6c0-1.2-0.1-2.3-0.3-3.3c-0.2-1-0.6-1.8-1.1-2.5
				c-0.6-0.7-1.4-1.2-2.4-1.5c-1-0.4-2.4-0.5-4.2-0.5h-11.4V33H134.1z M146.2,18c1.1,0,2.2-0.1,3.2-0.4c1-0.3,1.9-0.7,2.7-1.4
				c0.8-0.6,1.4-1.4,1.9-2.3c0.5-0.9,0.7-2.1,0.7-3.4c0-2.1-0.7-3.8-1.9-5c-1.3-1.2-3.3-1.8-6.2-1.8h-11.7V18H146.2z"/>
		</defs>
		<clipPath id="SVGID_9_">
			<use xlink:href="#SVGID_53_"  overflow="visible"/>
		</clipPath>
		<g clip-path="url(#SVGID_9_)">
			<defs>
				<rect id="SVGID_55_" x="0" y="2" width="171" height="32"/>
			</defs>
			<clipPath id="SVGID_10_">
				<use xlink:href="#SVGID_55_"  overflow="visible"/>
			</clipPath>
			<rect x="129.1" y="-2.2" clip-path="url(#SVGID_10_)" width="31.8" height="40.2"/>
		</g>
	</g>
	<g>
		<defs>
			<path id="SVGID_57_" d="M167.7,5.4c-0.9,1.2-2,2.3-3.4,3.1c-1.4,0.9-2.8,1.5-4.3,1.9V9.6c0.9-0.3,1.7-0.6,2.3-0.9
				c0.7-0.3,1.3-0.7,1.9-1.1c0.6-0.4,1.2-0.9,1.7-1.4c0.6-0.5,1.1-1.1,1.7-1.8h0.9V33h-0.8L167.7,5.4L167.7,5.4z"/>
		</defs>
		<clipPath id="SVGID_11_">
			<use xlink:href="#SVGID_57_"  overflow="visible"/>
		</clipPath>
		<g clip-path="url(#SVGID_11_)">
			<defs>
				<rect id="SVGID_59_" x="0" y="2" width="171" height="32"/>
			</defs>
			<clipPath id="SVGID_12_">
				<use xlink:href="#SVGID_59_"  overflow="visible"/>
			</clipPath>
			<rect x="155" y="-0.7" clip-path="url(#SVGID_12_)" width="18.6" height="38.7"/>
		</g>
	</g>
	<g>
		<defs>
			<path id="SVGID_61_" d="M15.9,11c-1.2,0.9-2.3,1.8-3.5,2.7c-0.6-1.3-1.2-2.5-1.8-3.8c3.9-2.6,7.8-5.3,11.7-7.9v32H16
				C15.9,26.3,15.9,18.7,15.9,11"/>
		</defs>
		<clipPath id="SVGID_13_">
			<use xlink:href="#SVGID_61_"  overflow="visible"/>
		</clipPath>
		<g clip-path="url(#SVGID_13_)">
			<defs>
				<rect id="SVGID_63_" x="0" y="2" width="171" height="32"/>
			</defs>
			<clipPath id="SVGID_14_">
				<use xlink:href="#SVGID_63_"  overflow="visible"/>
			</clipPath>
			<rect x="5.6" y="-3" clip-path="url(#SVGID_14_)" fill="#3373AA" width="21.7" height="42"/>
		</g>
	</g>
	<g>
		<defs>
			<path id="SVGID_65_" d="M23.7,7.5V2c0.2,0.1,0.3,0.1,0.5,0.2c2.4,0.8,4.4,2.1,6.2,3.9c1.4,1.4,2.6,2.9,3.4,4.8
				c0.7,1.5,1.2,3.1,1.4,4.8c0.3,2.5,0.1,4.9-0.6,7.2c-0.6,2.1-1.6,3.9-3,5.5c-1.6,1.9-3.4,3.4-5.5,4.6c-0.7,0.4-1.5,0.7-2.3,1
				c0,0-0.1,0-0.1,0c0-0.1,0-0.1,0-0.2c0-1.8,0-3.5,0-5.3c0-0.1,0-0.2,0.1-0.2c0.7-0.4,1.2-0.9,1.8-1.4c0.8-0.8,1.5-1.5,2.2-2.4
				c1.2-1.7,1.9-3.5,2.1-5.6c0.2-2-0.1-4-0.9-5.8c-0.7-1.6-1.8-3-3.1-4.1C25.2,8.4,24.5,7.9,23.7,7.5"/>
		</defs>
		<clipPath id="SVGID_15_">
			<use xlink:href="#SVGID_65_"  overflow="visible"/>
		</clipPath>
		<g clip-path="url(#SVGID_15_)">
			<defs>
				<rect id="SVGID_67_" x="0" y="2" width="171" height="32"/>
			</defs>
			<clipPath id="SVGID_16_">
				<use xlink:href="#SVGID_67_"  overflow="visible"/>
			</clipPath>
			<rect x="18.7" y="-3" clip-path="url(#SVGID_16_)" fill="#8DAF33" width="21.7" height="42"/>
		</g>
	</g>
	<g>
		<defs>
			<path id="SVGID_69_" d="M20.3,2.1c-0.4,0.2-0.8,0.4-1.2,0.5c-2.7,1.3-5.1,2.9-7.3,5c-1.5,1.4-2.7,3-3.7,4.9c-1,2-1.4,4.1-1.3,6.3
				C7,21.4,8,23.7,9.8,25.6c1.2,1.3,2.7,2.1,4.3,2.7c0.2,0.1,0.4,0.1,0.7,0.2V34c-0.2,0-0.4-0.1-0.6-0.1c-2.4-0.5-4.5-1.5-6.4-3
				c-2.6-2-4.5-4.5-5.5-7.6c-0.5-1.4-0.7-2.9-0.8-4.3c-0.1-2.6,0.3-5.1,1.4-7.4c0.7-1.5,1.6-2.8,2.7-4C7.5,5.5,9.8,3.9,12.4,3
				c1.5-0.5,3-0.8,4.6-0.9C18.1,2,19.2,2,20.3,2.1"/>
		</defs>
		<clipPath id="SVGID_17_">
			<use xlink:href="#SVGID_69_"  overflow="visible"/>
		</clipPath>
		<g clip-path="url(#SVGID_17_)">
			<defs>
				<rect id="SVGID_71_" x="0" y="2" width="171" height="32"/>
			</defs>
			<clipPath id="SVGID_18_">
				<use xlink:href="#SVGID_71_"  overflow="visible"/>
			</clipPath>
			<rect x="-3.6" y="-3" clip-path="url(#SVGID_18_)" fill="#1E1E1E" width="28.9" height="42"/>
		</g>
	</g>
</g>
</svg>
